<?xml version="1.0" standalone="no"?>
<!DOCTYPE svg PUBLIC "-//W3C//DTD SVG 20010904//EN"
 "http://www.w3.org/TR/2001/REC-SVG-20010904/DTD/svg10.dtd">
<svg version="1.0" xmlns="http://www.w3.org/2000/svg"
 width="172.000000pt" height="172.000000pt" viewBox="0 0 172.000000 172.000000"
 preserveAspectRatio="xMidYMid meet">
<metadata>
Created by potrace 1.11, written by Peter Selinger 2001-2013
</metadata>
<g transform="translate(0.000000,172.000000) scale(0.100000,-0.100000)"
fill="#000000" stroke="none">
<path d="M783 1709 c-206 -20 -375 -99 -519 -243 -67 -67 -164 -203 -164 -229
0 -3 43 -8 96 -9 l96 -3 94 -225 c52 -124 99 -236 105 -250 10 -22 19 -5 100
195 49 121 96 235 104 253 l15 33 113 0 c61 0 155 2 207 5 90 5 98 4 149 -23
58 -30 81 -55 106 -116 l16 -38 -33 -13 c-72 -29 -85 -28 -98 4 -39 95 -194
105 -236 16 -14 -29 -15 -39 -4 -65 14 -34 53 -52 155 -72 80 -15 148 -51 182
-95 38 -50 45 -151 15 -210 -43 -84 -121 -125 -237 -125 -41 0 -80 3 -87 7 -6
4 -53 6 -105 5 l-93 -2 -2 231 -3 230 -95 -230 -95 -230 -65 0 -65 0 -97 233
-97 232 -1 -232 0 -233 -76 0 -76 0 32 -57 c71 -126 198 -256 320 -326 258
-149 626 -141 875 18 82 53 198 167 254 250 244 365 166 860 -179 1136 -162
130 -398 199 -607 178z"/>
<path d="M57 1132 c-59 -180 -59 -355 1 -535 l27 -82 3 178 c1 98 1 256 0 350
l-3 172 -28 -83z"/>
<path d="M912 753 c3 -79 5 -87 29 -105 38 -28 103 -40 150 -28 51 14 79 45
79 87 0 47 -37 79 -108 93 -32 6 -79 17 -105 25 l-48 13 3 -85z"/>
</g>
</svg>
