<svg xmlns="http://www.w3.org/2000/svg" xmlns:xlink="http://www.w3.org/1999/xlink" viewBox="0 0 3320 873.696"><defs><style>.a{fill:url(#a);}.b{fill:url(#b);}.c{fill:#03aaf9;}</style><linearGradient id="a" x1="-0.045" x2="1" y2="0.031" gradientUnits="objectBoundingBox"><stop offset="0" stop-color="#fff"/><stop offset="1" stop-color="#03aaf9"/></linearGradient><linearGradient id="b" x1="0.024" y1="0.135" x2="0.995" y2="0.249" gradientUnits="objectBoundingBox"><stop offset="0" stop-color="#7bd5ff"/><stop offset="1" stop-color="#03aaf9"/></linearGradient></defs><g transform="translate(17149 -4437)"><path class="a" d="M0,948.418H3320V251.592L2990.1,202.4S2066.664,73.5,1558.729,93.433,802.813,169.024,480.3,173.165C177.787,177.049,0,76.869,0,76.869Z" transform="translate(-13829 5387.565) rotate(180)"/><path class="b" d="M0,806.857H3320V206.6S2713.671,50.637,2036.963,7.061,1118,134.783,613.168,161.151,0,82.92,0,82.92Z" transform="translate(-13829 5243.857) rotate(180)"/><path class="c" d="M0,729.228H3320V165.758S2957.3-10.773,2522.264,20.8,1943.889,199.3,1392.809,95.768s-595.173,159.4-819.025,99.724S0,95.768,0,95.768Z" transform="translate(-13829 5166.229) rotate(180)"/></g></svg>