<svg xmlns="http://www.w3.org/2000/svg" xmlns:xlink="http://www.w3.org/1999/xlink" viewBox="0 0 547 167.782"><defs><style>.a{opacity:0.7;}.b,.m,.n{opacity:0.1;}.c{fill:url(#a);}.d{fill:url(#b);}.e{fill:url(#c);}.f{fill:#32c846;}.g,.p,.r{fill:none;stroke:#535461;stroke-miterlimit:10;}.g,.p{opacity:0.6;}.h{fill:#f1da25;}.i{fill:url(#d);}.j{fill:url(#e);}.k{fill:#535461;}.l,.n{fill:#fff;}.o{fill:url(#g);}.p{stroke-width:3px;}.q{fill:#38d64d;}.r{opacity:0.3;}.s{fill:#e0e0e0;}</style><linearGradient id="a" x1="-3.509" y1="1.65" x2="-3.509" y2="0.65" gradientUnits="objectBoundingBox"><stop offset="0" stop-color="gray" stop-opacity="0.251"/><stop offset="0.54" stop-color="gray" stop-opacity="0.122"/><stop offset="1" stop-color="gray" stop-opacity="0.102"/></linearGradient><linearGradient id="b" x1="-1.384" y1="1.65" x2="-1.384" y2="0.65" xlink:href="#a"/><linearGradient id="c" x1="0" y1="0.5" x2="1" y2="0.5" xlink:href="#a"/><linearGradient id="d" x1="0.5" y1="1" x2="0.5" y2="0" xlink:href="#a"/><linearGradient id="e" x1="0.5" y1="1" x2="0.5" y2="0" xlink:href="#a"/><linearGradient id="g" x1="0" y1="0.5" x2="1" y2="0.5" xlink:href="#a"/></defs><g transform="translate(-2148 -714.551)"><g transform="translate(2148 714.551)"><g class="a" transform="translate(371.324 53.152)"><g class="b" transform="translate(24.349 0)"><path class="c" d="M592.311,565.04v90.934H569.4V565.04h22.911Z" transform="translate(-569.4 -565.04)"/></g><g class="b" transform="translate(0 0)"><path class="d" d="M557.278,565.04v90.934H534.36V565.04h22.918Z" transform="translate(-534.36 -565.04)"/></g></g><g class="a" transform="translate(36.859 25.359)"><path class="e" d="M327.47,654.563a13.279,13.279,0,0,0-5.267-14.079,39.225,39.225,0,0,1-3.53-2.279,12.976,12.976,0,0,1-3.537-5.928c-1.765-5.309-2.321-11.257-5.42-16.052-2.821-4.364-8.339-5.643-13.2-6.073a10.439,10.439,0,0,0-5.26.493c-2.717,1.23-4.01,4.433-4.128,7.408s.653,5.914.848,8.888-.334,6.254-2.529,8.255-5.337,2.251-8.241,2.654a54.588,54.588,0,0,0-11.174,2.78c-3.037,1.1-6.414,3.1-6.56,6.324-.118,2.641,2.008,4.739,3.613,6.838a17.5,17.5,0,0,1,3.474,13.9c-1.008,4.8-4.482,9.131-5.107,14.106a6.122,6.122,0,0,0,.5,3.725,6.817,6.817,0,0,0,1.89,2c1.876,1.452,3.968,2.613,5.74,4.169,3.7,3.273,5.705,8.033,7.248,12.73.146.452.278.91.424,1.39h-3.634a13.488,13.488,0,0,0-13.453,13.453h0a13.488,13.488,0,0,0,13.453,13.453h36.322a13.488,13.488,0,0,0,13.453-13.453h0a13.488,13.488,0,0,0-13.453-13.453H299.98c2.356-3.155,4.816-6.115,8.45-7.331s8.033-.5,10.882-3.037a8.527,8.527,0,0,0,2.467-4.864,14.593,14.593,0,0,0-1.591-9.687c-1.147-2.043-2.821-3.9-3.183-6.212a9.054,9.054,0,0,1,1.39-5.733C321.126,663.944,325.983,660.046,327.47,654.563Z" transform="translate(-259.463 -610.044)"/></g><path class="f" d="M297.122,614.345a9.918,9.918,0,0,0-5.01.473c-2.585,1.167-3.815,4.225-3.933,7.06s.625,5.629.806,8.464-.32,5.948-2.411,7.866-5.08,2.147-7.852,2.529a51.98,51.98,0,0,0-10.639,2.641c-2.891,1.049-6.108,2.953-6.254,6.025-.111,2.509,1.918,4.517,3.44,6.518a16.663,16.663,0,0,1,3.3,13.266c-.966,4.6-4.267,8.693-4.864,13.432a5.831,5.831,0,0,0,.479,3.551,6.49,6.49,0,0,0,1.8,1.9c1.786,1.39,3.78,2.488,5.469,3.982,3.523,3.12,5.427,7.644,6.9,12.119a98.173,98.173,0,0,1,3.4,13.439c3.037-1.953,6.949-1.925,10.2-3.509,6.9-3.384,9.214-13.2,16.5-15.614,3.474-1.154,7.644-.479,10.361-2.891a8.123,8.123,0,0,0,2.349-4.656,13.9,13.9,0,0,0-1.536-9.221c-1.091-1.946-2.682-3.711-3.03-5.914a8.758,8.758,0,0,1,1.306-5.462c2.62-4.76,7.248-8.45,8.658-13.7a12.647,12.647,0,0,0-5-13.391,37.347,37.347,0,0,1-3.356-2.175,12.222,12.222,0,0,1-3.37-5.649c-1.682-5.052-2.217-10.722-5.163-15.288C306.982,615.978,301.757,614.769,297.122,614.345Z" transform="translate(-223.324 -585.966)"/><path class="g" d="M308.05,614.64s6.407,85.819-10.25,100.551" transform="translate(-234.3 -586.087)"/><path class="h" d="M9.937,0H50.269a9.937,9.937,0,0,1,9.937,9.937v5.747a9.937,9.937,0,0,1-9.937,9.937H9.937A9.937,9.937,0,0,1,0,15.684V9.937A9.937,9.937,0,0,1,9.937,0Z" transform="translate(39.164 119.5)"/><path class="g" d="M261.86,662.522s16.372-1.911,36.364,10.25" transform="translate(-223.335 -600.663)"/><path class="g" d="M313.73,684.188a42.305,42.305,0,0,1,28.637-17.928" transform="translate(-239.161 -601.837)"/><path class="g" d="M264.16,712.3s22.7-3.85,33.126,2.557" transform="translate(-224.037 -615.533)"/><path class="g" d="M310,727.952a37.945,37.945,0,0,1,25.246-1.015" transform="translate(-238.023 -619.827)"/><g class="a" transform="translate(152.064 50.998)"><g class="b" transform="translate(0 2.849)"><path class="i" d="M218.83,566.04v90.934h22.918V566.04H218.83Z" transform="translate(-218.83 -566.04)"/></g><g class="b" transform="translate(24.349 2.849)"><path class="j" d="M253.87,566.04v90.934h22.911V566.04H253.87Z" transform="translate(-253.87 -566.04)"/></g><g class="b" transform="translate(47.385 0)"><path class="i" d="M332.591,649.8l-19.005-71.255h0l-1.1-4.149h0l-3.322-12.459-22.139,5.907,3.322,12.453h0l.883,3.308L306.206,639.8h0l1.112,4.155h0l3.134,11.758Z" transform="translate(-287.02 -561.94)"/></g></g><rect class="k" width="21.757" height="86.348" transform="translate(154.413 56.071)"/><rect class="l" width="21.757" height="4.079" transform="translate(154.413 68.308)"/><rect class="l" width="21.757" height="4.079" transform="translate(154.413 126.776)"/><rect class="m" width="5.441" height="86.348" transform="translate(170.728 56.071)"/><rect class="k" width="21.757" height="86.348" transform="translate(177.525 56.071)"/><rect class="l" width="21.757" height="4.079" transform="translate(177.525 68.308)"/><rect class="l" width="21.757" height="4.079" transform="translate(177.525 126.776)"/><rect class="m" width="5.441" height="86.348" transform="translate(193.84 56.071)"/><rect class="k" width="21.757" height="86.348" transform="translate(199.375 59.002) rotate(-14.93)"/><rect class="l" width="21.757" height="4.079" transform="translate(202.532 70.827) rotate(-14.93)"/><rect class="l" width="21.757" height="4.079" transform="translate(217.6 127.322) rotate(-14.93)"/><rect class="m" width="5.441" height="86.348" transform="translate(215.151 54.8) rotate(-14.93)"/><rect class="k" width="21.757" height="86.348" transform="translate(415.665 142.418) rotate(180)"/><rect class="l" width="21.757" height="4.079" transform="translate(415.665 72.394) rotate(180)"/><rect class="l" width="21.757" height="4.079" transform="translate(415.665 130.862) rotate(180)"/><rect class="n" width="5.441" height="86.348" transform="translate(399.349 142.418) rotate(180)"/><rect class="k" width="21.757" height="86.348" transform="translate(392.553 142.418) rotate(180)"/><rect class="l" width="21.757" height="4.079" transform="translate(392.553 72.394) rotate(180)"/><rect class="l" width="21.757" height="4.079" transform="translate(392.553 130.862) rotate(180)"/><rect class="m" width="5.441" height="86.348" transform="translate(376.236 142.418) rotate(180)"/><g class="a" transform="translate(440.383 0)"><path class="o" d="M926.813,676.374H887.955l.514-4.371c10.979-9.854,18.067-36.134,18.067-36.134a3.633,3.633,0,0,0-.465.1c-6.463,1.3-11.021,3.947-14.224,7.123l1.39-11.626c20.284-4.371,28.324-31.2,28.324-31.2-12.946,2.87-21.014,7.317-26.024,11.528l1.974-17.081c13.71,4.7,27.907-20.3,27.907-20.3l-.542-.111.264-.174-.4.146c-15.156-3.266-23.258,5.4-25.892,9l.195-1.675q-.6,1.584-1.167,3.155h0v.042q-1.584,4.364-2.946,8.617h0q-1.167,3.634-2.182,7.185h0s-.625-15.288-16.726-19.29c0,0,1.689,33.306,14.447,27.851h0q-1.772,7.213-2.981,13.988h0q-.8,4.406-1.39,8.61l-.076.083.076-.062V632h0q-.535,3.794-.917,7.394c.25-4.621-.6-17.984-16.337-30.575,0,0-20.909,36.781,14.753,44.015l.236.2-.056-.167.327.069.146-1.89a198.231,198.231,0,0,0,.125,23.661h0c.035.542.076,1.07.111,1.584h-39.3c-14.989,31.013,8.339,48,8.339,48h64.41C942.893,692.794,926.813,676.374,926.813,676.374Zm-41.867-35.245Z" transform="translate(-840.16 -573.551)"/></g><path class="p" d="M904.79,693.7S894.6,649.169,917.131,591.75" transform="translate(-418.795 -579.103)"/><path class="h" d="M846.519,719.16H925.4s15.559,19.853-8.589,49.337H854.573S832.037,748.137,846.519,719.16Z" transform="translate(-400.237 -617.977)"/><path class="q" d="M906.846,638.239s2.87-14.947,32.924-21.389c0,0-9.583,30.916-34.3,29.679Z" transform="translate(-419.704 -586.762)"/><path class="q" d="M894.555,658.547s3.162-15.628-15.621-30.117c0,0-20.409,34.7,14.746,41.228Z" transform="translate(-409.81 -590.295)"/><path class="q" d="M903.117,691.105s-2.182-22.091,21.444-26.385c0,0-8.624,30.846-21.479,36.35Z" transform="translate(-418.97 -601.367)"/><path class="r" d="M905.41,646.362s24.683-26.295,34.342-29.512" transform="translate(-419.686 -586.762)"/><path class="r" d="M881.47,628.43s8.047,36.489,14.489,41.318" transform="translate(-412.381 -590.295)"/><path class="r" d="M903.09,701.209s12.876-35.44,21.465-36.489" transform="translate(-418.978 -601.367)"/><g class="b" transform="translate(445.761 101.183)"><path d="M927.306,719.16H848.421c-.181.361-.347.695-.521,1.07h76.716s15.177,19.374-7.727,48.3h1.821C942.864,739.013,927.306,719.16,927.306,719.16Z" transform="translate(-847.9 -719.16)"/></g><rect class="s" width="547" height="18.54" transform="translate(0 141.654)"/><rect class="s" width="500.644" height="7.588" transform="translate(23.174 160.194)"/><rect class="m" width="500.644" height="2.529" transform="translate(23.174 160.194)"/></g><path class="q" d="M920.67,591.4s7.838-13.953,26.621-9.659c0,0-15.524,26.406-29.491,17.775Z" transform="translate(1725.229 136.667)"/><path class="q" d="M907.673,609.385s-.6-14.266-16.163-18.026c0,0,1.633,31.124,13.96,26.024Z" transform="translate(1733.25 133.482)"/><path class="r" d="M918.15,599.991s20.388-15.559,28.977-18.241" transform="translate(1725.122 136.414)"/><path class="r" d="M891.51,591.37s15.024,20.388,13.953,25.76" transform="translate(1733.25 133.479)"/></g></svg>